<svg width="2017" height="700" viewBox="0 0 2017 700" fill="none" xmlns="http://www.w3.org/2000/svg">
<path d="M1605.25 477.623C1582.6 477.623 1562.21 472.673 1544.09 462.758C1525.96 452.565 1511.67 438.258 1501.2 419.854C1491 401.45 1485.91 380.21 1485.91 356.136C1485.91 332.062 1491.15 310.837 1501.62 292.418C1512.39 274.014 1526.96 259.854 1545.37 249.94C1563.77 239.746 1584.3 234.649 1606.95 234.649C1629.6 234.649 1650.14 239.746 1668.54 249.94C1686.95 259.854 1701.38 274.014 1711.86 292.418C1722.62 310.823 1728 332.062 1728 356.136C1728 380.21 1722.48 401.435 1711.43 419.854C1700.67 438.258 1685.95 452.565 1667.26 462.758C1648.86 472.673 1628.19 477.623 1605.25 477.623ZM1605.25 425.803C1616.02 425.803 1626.06 423.247 1635.41 418.15C1645.04 412.774 1652.68 404.843 1658.35 394.37C1664.02 383.897 1666.84 371.148 1666.84 356.136C1666.84 333.766 1660.89 316.639 1648.99 304.742C1637.39 292.565 1623.08 286.484 1606.1 286.484C1589.12 286.484 1574.82 292.565 1563.2 304.742C1551.87 316.639 1546.2 333.766 1546.2 356.136C1546.2 378.506 1551.73 395.78 1562.77 407.956C1574.1 419.854 1588.26 425.803 1605.25 425.803Z" fill="black"/>
<path d="M1365.86 419.002L1425.32 238.483H1488.61L1401.54 473.789H1329.33L1242.68 238.483H1306.4L1365.86 419.002Z" fill="black"/>
<path d="M1230.32 238.498V473.804H1170.43V444.075C1162.78 454.269 1152.73 462.347 1140.28 468.281C1128.1 473.951 1114.79 476.771 1100.36 476.771C1081.95 476.771 1065.68 472.952 1051.52 465.3C1037.36 457.368 1026.18 445.911 1017.97 430.9C1010.04 415.609 1006.07 397.484 1006.07 376.538V238.498H1065.53V368.048C1065.53 386.732 1070.2 401.185 1079.54 411.379C1088.88 421.293 1101.63 426.243 1117.76 426.243C1133.89 426.243 1147.06 421.293 1156.41 411.379C1165.75 401.185 1170.42 386.747 1170.42 368.048V238.498H1230.3H1230.32Z" fill="black"/>
<path d="M448.121 208.254C451.103 208.225 454.628 208.372 457.595 208.607C480.229 210.546 501.821 219.021 519.756 232.975C527.041 238.659 535.516 247.134 541.568 254.199C527.261 246.84 511.413 242.963 495.329 242.875C452.013 242.478 408.771 261.881 378.337 292.271C360.784 309.809 342.894 335.778 342.483 361.6C342.321 372.323 345.993 382.692 353.528 390.389C361.901 398.923 373.519 403.036 385.402 402.874C412.575 402.507 439.881 386.585 458.505 367.622C470.609 355.299 482.066 338.172 484.827 320.855C485.268 318.123 485.253 315.538 485.238 312.806C497.004 312.629 506.83 316.419 514.424 325.628C519.344 331.577 521.709 340.023 521.944 347.617C522.605 368.606 507.946 391.931 494.227 406.723C465.673 437.744 425.912 456.061 383.786 457.617C331.173 459.468 289.502 425.524 288.048 371.823C286.902 331.43 306.496 291.86 333.552 262.733C363.957 229.993 403.175 209.635 448.106 208.24L448.121 208.254Z" fill="black"/>
<path d="M490.144 251.938C494.433 251.541 502.439 252.055 506.757 252.511C529.406 254.875 550.675 264.555 565.275 282.372C582.181 302.994 587.263 331.445 584.326 357.488C579.464 400.525 552.775 442.856 519.462 469.765C489.439 494.016 452.102 507.676 413.339 503.21C375.341 498.819 345.876 479.122 322.36 449.73C326.414 452.183 329.234 454.122 333.626 456.267C365.485 471.895 401.765 469.016 434.446 458.073C457.478 449.76 477.204 438.244 495.065 421.132C513.881 403.095 532.491 376.465 533.299 349.395C533.71 337.967 529.377 324.145 520.975 316.067C491.775 287.939 442.775 313.247 419.259 336.645C403.88 351.95 390.382 371.882 390.147 393.665C372.065 394.576 354.557 382.766 353.896 363.745C353.132 341.669 367.409 319.665 381.598 303.978C409.52 273.015 448.503 254.317 490.13 251.923L490.144 251.938Z" fill="black"/>
<path d="M490.13 251.71C494.419 251.313 502.424 251.827 506.742 252.283C529.392 254.648 550.66 264.327 565.261 282.144C582.167 302.766 587.249 331.218 584.311 357.26C579.45 400.297 552.761 442.628 519.448 469.537C489.425 493.788 452.087 507.448 413.325 502.983C375.326 498.591 345.862 478.894 322.346 449.503C326.4 451.956 329.22 453.894 333.612 456.039C365.47 471.667 401.751 468.788 434.432 457.846C457.463 449.532 477.19 438.016 495.051 420.904C513.866 402.867 532.476 376.237 533.284 349.167C533.696 337.739 529.362 323.918 520.961 315.839C491.76 287.711 442.76 313.019 419.244 336.417C403.866 351.723 390.367 371.655 390.132 393.437C372.051 394.348 354.542 382.539 353.881 363.517C353.118 341.441 367.395 319.438 381.583 303.751C409.506 272.788 448.489 254.089 490.115 251.695L490.13 251.71Z" fill="black"/>
<path fill-rule="evenodd" clip-rule="evenodd" d="M781.767 234.664C801.875 234.664 820 239.614 836.128 249.528C852.55 259.443 865.431 273.603 874.773 292.007C884.394 310.132 889.212 331.225 889.212 355.299C889.212 379.373 884.394 400.744 874.773 419.428C865.431 437.832 852.55 452.139 836.128 462.332C819.986 472.526 801.86 477.623 781.767 477.623C764.493 477.623 749.203 474.083 735.895 467.003C722.867 459.924 712.247 451.008 704.036 440.241V573.053C669.651 575.829 649.983 561.89 644.96 534.716C644.784 533.483 644.622 531.779 644.578 530.868V238.483H704.036V272.457C711.689 261.69 722.162 252.775 735.469 245.695C749.056 238.336 764.493 234.649 781.767 234.649V234.664ZM766.065 286.91C755.298 286.91 745.105 289.745 735.484 295.4C726.142 300.776 718.49 308.708 712.555 319.18C706.886 329.653 704.066 341.977 704.066 356.136C704.066 370.296 706.9 382.604 712.555 393.092C718.504 403.565 726.142 411.643 735.484 417.298C745.119 422.674 755.313 425.362 766.065 425.362C777.111 425.362 787.304 422.527 796.646 416.872C806.267 411.203 813.919 403.139 819.574 392.666C825.523 382.193 828.49 369.723 828.49 355.284C828.49 340.846 825.523 328.948 819.574 318.754C813.905 308.282 806.267 300.35 796.646 294.974C787.304 289.598 777.111 286.91 766.065 286.91Z" fill="black"/>
<path d="M970.657 166.687C935.317 163.837 915.532 178.643 911.199 207.3V473.789H970.657V166.687Z" fill="black"/>
</svg>
